<mxfile host="Electron" modified="2024-03-09T19:23:26.272Z" agent="Mozilla/5.0 (Windows NT 10.0; Win64; x64) AppleWebKit/537.36 (KHTML, like Gecko) draw.io/23.1.5 Chrome/120.0.6099.109 Electron/28.1.0 Safari/537.36" etag="WjVWqJc_d5Jsg_-1pIok" version="23.1.5" type="device">
  <diagram name="Page-1" id="krlLLVuHp6nMf8_PuCLu">
    <mxGraphModel dx="795" dy="554" grid="1" gridSize="10" guides="1" tooltips="1" connect="1" arrows="1" fold="1" page="1" pageScale="1" pageWidth="850" pageHeight="1100" math="0" shadow="0">
      <root>
        <mxCell id="0" />
        <mxCell id="1" parent="0" />
        <mxCell id="wE5hzmVtrxH4fMtxzaI--26" style="edgeStyle=orthogonalEdgeStyle;rounded=0;orthogonalLoop=1;jettySize=auto;html=1;entryX=0.5;entryY=0;entryDx=0;entryDy=0;fontFamily=GOST Type B;fontStyle=2" parent="1" source="wE5hzmVtrxH4fMtxzaI--2" edge="1">
          <mxGeometry relative="1" as="geometry">
            <mxPoint x="425" y="150" as="targetPoint" />
          </mxGeometry>
        </mxCell>
        <mxCell id="wE5hzmVtrxH4fMtxzaI--2" value="&lt;font style=&quot;font-size: 41px;&quot;&gt;Начало&lt;/font&gt;" style="rounded=1;whiteSpace=wrap;html=1;arcSize=50;fontFamily=GOST Type B;fontStyle=2;fontSize=32;" parent="1" vertex="1">
          <mxGeometry x="355" y="60" width="140" height="70" as="geometry" />
        </mxCell>
        <mxCell id="wE5hzmVtrxH4fMtxzaI--14" style="edgeStyle=orthogonalEdgeStyle;rounded=0;orthogonalLoop=1;jettySize=auto;html=1;fontFamily=GOST Type B;fontStyle=2" parent="1" source="wE5hzmVtrxH4fMtxzaI--5" edge="1">
          <mxGeometry relative="1" as="geometry">
            <mxPoint x="425.52941176470586" y="250" as="targetPoint" />
          </mxGeometry>
        </mxCell>
        <mxCell id="wE5hzmVtrxH4fMtxzaI--42" style="edgeStyle=orthogonalEdgeStyle;rounded=0;orthogonalLoop=1;jettySize=auto;html=1;fontFamily=GOST Type B;fontStyle=2;" parent="1" source="wE5hzmVtrxH4fMtxzaI--5" edge="1">
          <mxGeometry relative="1" as="geometry">
            <mxPoint x="425" y="680" as="targetPoint" />
            <Array as="points">
              <mxPoint x="560" y="190" />
              <mxPoint x="560" y="650" />
              <mxPoint x="425" y="650" />
            </Array>
          </mxGeometry>
        </mxCell>
        <mxCell id="wE5hzmVtrxH4fMtxzaI--5" value="&lt;font style=&quot;font-size: 16px;&quot;&gt;for i = 1 to n - 1&lt;br style=&quot;&quot;&gt;n - размер &lt;br&gt;сортируемых данных&lt;/font&gt;" style="shape=hexagon;perimeter=hexagonPerimeter2;whiteSpace=wrap;html=1;fixedSize=1;fontFamily=GOST Type B;fontStyle=2;fontSize=14;" parent="1" vertex="1">
          <mxGeometry x="343" y="150" width="165" height="80" as="geometry" />
        </mxCell>
        <mxCell id="wE5hzmVtrxH4fMtxzaI--49" value="Нет" style="text;html=1;align=center;verticalAlign=middle;resizable=0;points=[];autosize=1;strokeColor=none;fillColor=none;fontFamily=GOST Type B;fontStyle=2;fontSize=14;" parent="1" vertex="1">
          <mxGeometry x="495" y="360" width="50" height="30" as="geometry" />
        </mxCell>
        <mxCell id="AJ-jYtxmaR9qbUo1SPaE-3" style="edgeStyle=orthogonalEdgeStyle;rounded=0;orthogonalLoop=1;jettySize=auto;html=1;entryX=0.5;entryY=0;entryDx=0;entryDy=0;" parent="1" source="AJ-jYtxmaR9qbUo1SPaE-1" target="AJ-jYtxmaR9qbUo1SPaE-2" edge="1">
          <mxGeometry relative="1" as="geometry" />
        </mxCell>
        <mxCell id="AJ-jYtxmaR9qbUo1SPaE-1" value="&lt;font style=&quot;font-size: 20px;&quot;&gt;temp = data[i]&lt;br&gt;j = i&lt;/font&gt;" style="rounded=0;whiteSpace=wrap;html=1;fontFamily=GOST Type B;fontStyle=2;fontSize=14;" parent="1" vertex="1">
          <mxGeometry x="360.5" y="250" width="130" height="60" as="geometry" />
        </mxCell>
        <mxCell id="AJ-jYtxmaR9qbUo1SPaE-5" style="edgeStyle=orthogonalEdgeStyle;rounded=0;orthogonalLoop=1;jettySize=auto;html=1;entryX=0.5;entryY=0;entryDx=0;entryDy=0;" parent="1" source="AJ-jYtxmaR9qbUo1SPaE-2" target="AJ-jYtxmaR9qbUo1SPaE-4" edge="1">
          <mxGeometry relative="1" as="geometry" />
        </mxCell>
        <mxCell id="AJ-jYtxmaR9qbUo1SPaE-10" style="edgeStyle=orthogonalEdgeStyle;rounded=0;orthogonalLoop=1;jettySize=auto;html=1;entryX=0.5;entryY=0;entryDx=0;entryDy=0;" parent="1" source="AJ-jYtxmaR9qbUo1SPaE-2" target="AJ-jYtxmaR9qbUo1SPaE-9" edge="1">
          <mxGeometry relative="1" as="geometry">
            <mxPoint x="540" y="560" as="targetPoint" />
            <Array as="points">
              <mxPoint x="530" y="390" />
              <mxPoint x="530" y="540" />
              <mxPoint x="425" y="540" />
            </Array>
          </mxGeometry>
        </mxCell>
        <mxCell id="AJ-jYtxmaR9qbUo1SPaE-2" value="&lt;font style=&quot;font-size: 16px;&quot;&gt;data[j-1]&amp;gt;temp&lt;br&gt;&amp;amp;&amp;amp; j &amp;gt; 0?&lt;/font&gt;" style="rhombus;whiteSpace=wrap;html=1;fontFamily=GOST Type B;fontStyle=2;fontSize=13;" parent="1" vertex="1">
          <mxGeometry x="345" y="350" width="160" height="80" as="geometry" />
        </mxCell>
        <mxCell id="AJ-jYtxmaR9qbUo1SPaE-7" style="edgeStyle=orthogonalEdgeStyle;rounded=0;orthogonalLoop=1;jettySize=auto;html=1;" parent="1" source="AJ-jYtxmaR9qbUo1SPaE-4" edge="1">
          <mxGeometry relative="1" as="geometry">
            <mxPoint x="425" y="330" as="targetPoint" />
            <Array as="points">
              <mxPoint x="425" y="530" />
              <mxPoint x="311" y="530" />
              <mxPoint x="311" y="330" />
            </Array>
          </mxGeometry>
        </mxCell>
        <mxCell id="AJ-jYtxmaR9qbUo1SPaE-4" value="&lt;font style=&quot;font-size: 19px;&quot;&gt;data[j]=data[j-1]&lt;br&gt;j=j-1&lt;/font&gt;" style="rounded=0;whiteSpace=wrap;html=1;fontFamily=GOST Type B;fontStyle=2;fontSize=14;" parent="1" vertex="1">
          <mxGeometry x="360" y="450" width="130" height="60" as="geometry" />
        </mxCell>
        <mxCell id="AJ-jYtxmaR9qbUo1SPaE-8" value="Да" style="text;html=1;align=center;verticalAlign=middle;resizable=0;points=[];autosize=1;strokeColor=none;fillColor=none;fontFamily=GOST Type B;fontStyle=2;fontSize=14;" parent="1" vertex="1">
          <mxGeometry x="425" y="420" width="40" height="30" as="geometry" />
        </mxCell>
        <mxCell id="AJ-jYtxmaR9qbUo1SPaE-11" style="edgeStyle=orthogonalEdgeStyle;rounded=0;orthogonalLoop=1;jettySize=auto;html=1;entryX=0;entryY=0.5;entryDx=0;entryDy=0;" parent="1" source="AJ-jYtxmaR9qbUo1SPaE-9" target="wE5hzmVtrxH4fMtxzaI--5" edge="1">
          <mxGeometry relative="1" as="geometry">
            <mxPoint x="249.9999999999999" y="190" as="targetPoint" />
            <Array as="points">
              <mxPoint x="425" y="640" />
              <mxPoint x="290" y="640" />
              <mxPoint x="290" y="190" />
            </Array>
          </mxGeometry>
        </mxCell>
        <mxCell id="AJ-jYtxmaR9qbUo1SPaE-9" value="&lt;font style=&quot;font-size: 21px;&quot;&gt;data[j] = temp&lt;/font&gt;" style="rounded=0;whiteSpace=wrap;html=1;fontFamily=GOST Type B;fontStyle=2;fontSize=14;" parent="1" vertex="1">
          <mxGeometry x="360" y="560" width="130" height="60" as="geometry" />
        </mxCell>
        <mxCell id="AJ-jYtxmaR9qbUo1SPaE-12" value="&lt;font style=&quot;font-size: 41px;&quot;&gt;Конец&lt;/font&gt;" style="rounded=1;whiteSpace=wrap;html=1;arcSize=50;fontFamily=GOST Type B;fontStyle=2;fontSize=32;" parent="1" vertex="1">
          <mxGeometry x="355.5" y="680" width="140" height="70" as="geometry" />
        </mxCell>
      </root>
    </mxGraphModel>
  </diagram>
</mxfile>
